<svg width="204" height="150" viewBox="0 0 204 150" fill="none" xmlns="http://www.w3.org/2000/svg">
<path d="M113.416 41.116C113.416 41.116 111.483 39.7872 109.188 41.116C106.892 42.4448 86.3565 65.276 72.1625 64.7928C58.0289 64.3096 27.1645 63.1016 12.3061 79.2888C-2.55231 95.476 -2.18991 114.985 7.47409 123.804C17.1381 132.622 25.3525 141.078 25.3525 141.078C25.3525 141.078 28.2517 143.977 30.9093 141.803C30.9093 141.803 38.8821 116.254 45.5261 116.133C52.1701 116.012 48.3045 126.642 50.4789 127.488C52.6533 128.334 63.1629 126.038 64.6125 128.938C66.0621 131.837 43.2309 144.038 44.9221 147.058C46.6133 150.078 92.9401 149.353 92.9401 149.353C92.9401 149.353 98.3761 147.782 98.3761 143.917C98.3761 140.051 100.248 94.1472 94.1481 88.0468C94.1481 88.0468 92.0945 83.094 96.4433 82.3692C100.792 81.6444 131.173 69.4436 130.932 62.1956C130.932 62.1956 131.294 60.8668 129.844 58.7528C128.395 56.7596 113.416 41.116 113.416 41.116Z" fill="white"/>
<path d="M121.63 31.9355H165.843C165.843 31.9355 158.776 49.2704 143.736 49.2704C128.697 49.2704 121.63 31.9355 121.63 31.9355Z" fill="white"/>
<path d="M147.542 26.8015C178.398 26.8015 203.412 23.9891 203.412 20.5199C203.412 17.0507 178.398 14.2383 147.542 14.2383C116.686 14.2383 91.6719 17.0507 91.6719 20.5199C91.6719 23.9891 116.686 26.8015 147.542 26.8015Z" fill="white"/>
<path d="M24.4467 42.9884C22.5139 39.0624 21.4267 34.6532 21.4267 30.0024C21.4267 13.6944 34.6543 0.466797 50.9623 0.466797C60.3847 0.466797 68.7803 4.876 74.2163 11.7616L82.9139 6.8088C82.9139 6.8088 85.0279 5.96319 86.1151 6.99C87.2023 8.0168 85.1487 9.6476 85.1487 9.6476L24.4467 42.9884Z" fill="white"/>
<path d="M27.104 47.5179C32.4796 54.5847 40.996 59.1147 50.5392 59.1147C66.8472 59.1147 80.0748 45.8871 80.0748 29.5791C80.0748 26.1363 79.4708 22.8143 78.3836 19.7339L27.104 47.5179Z" fill="white"/>
</svg>
