<svg width="67" height="65" viewBox="0 0 67 65" fill="none" xmlns="http://www.w3.org/2000/svg">
<path d="M35.568 49.8432L43.7798 41.8766C44.1276 41.5391 44.6748 41.4922 45.0782 41.7652L57.9511 50.4753C58.4693 50.826 58.5349 51.5459 58.0881 51.9793L53.4896 56.4405C52.7687 57.14 51.7366 57.4416 50.7513 57.1876C46.3156 56.0439 33.4192 52.0335 23.064 41.9874C12.7088 31.9413 8.57499 19.4299 7.39615 15.1266C7.13428 14.1707 7.4452 13.1694 8.16614 12.47L12.7646 8.00875C13.2114 7.5753 13.9535 7.63895 14.3149 8.14174L23.293 20.6303C23.5744 21.0217 23.526 21.5525 23.1782 21.89L14.9665 29.8566" stroke="#F2F2F2" stroke-width="5" stroke-linecap="round"/>
</svg>
